<svg width="28" height="28" viewBox="0 0 28 28" fill="none" xmlns="http://www.w3.org/2000/svg">
    <path d="M20.2988 17.75C18.9238 20.1325 16.625 21.5 14 21.5C11.375 21.5 9.08001 20.1337 7.70126 17.75C7.51092 17.4061 7.4632 17.0012 7.56836 16.6224C7.67352 16.2436 7.92316 15.9213 8.26356 15.7247C8.60397 15.5281 9.00793 15.4731 9.38855 15.5713C9.76916 15.6695 10.096 15.9132 10.2988 16.25C10.785 17.0913 11.9125 18.5 14 18.5C16.0875 18.5 17.215 17.09 17.7013 16.25C17.7978 16.0756 17.928 15.9222 18.0845 15.7988C18.2409 15.6753 18.4204 15.5843 18.6124 15.531C18.8044 15.4777 19.0051 15.4632 19.2028 15.4883C19.4005 15.5134 19.5912 15.5777 19.7638 15.6773C19.9364 15.777 20.0874 15.9101 20.208 16.0687C20.3285 16.2274 20.4163 16.4085 20.4661 16.6014C20.5159 16.7944 20.5267 16.9954 20.498 17.1926C20.4693 17.3898 20.4015 17.5793 20.2988 17.75ZM27.5 14C27.5 16.67 26.7082 19.2801 25.2248 21.5002C23.7414 23.7203 21.633 25.4506 19.1662 26.4724C16.6994 27.4942 13.985 27.7615 11.3663 27.2406C8.74754 26.7197 6.34207 25.434 4.45406 23.5459C2.56606 21.6579 1.28031 19.2525 0.759405 16.6337C0.238504 14.015 0.505849 11.3006 1.52763 8.83377C2.54942 6.36697 4.27974 4.25856 6.49981 2.77516C8.71987 1.29176 11.33 0.5 14 0.5C17.5792 0.50397 21.0107 1.92756 23.5416 4.45844C26.0724 6.98932 27.496 10.4208 27.5 14ZM24.5 14C24.5 11.9233 23.8842 9.89323 22.7304 8.16651C21.5767 6.4398 19.9368 5.09399 18.0182 4.29926C16.0996 3.50454 13.9884 3.29661 11.9516 3.70175C9.91476 4.1069 8.04384 5.10693 6.57538 6.57538C5.10693 8.04383 4.10691 9.91475 3.70176 11.9516C3.29662 13.9884 3.50455 16.0996 4.29927 18.0182C5.09399 19.9368 6.4398 21.5767 8.16652 22.7304C9.89323 23.8842 11.9233 24.5 14 24.5C16.7839 24.497 19.4529 23.3898 21.4213 21.4213C23.3898 19.4528 24.497 16.7839 24.5 14ZM9.50001 13.5C9.89557 13.5 10.2822 13.3827 10.6111 13.1629C10.94 12.9432 11.1964 12.6308 11.3478 12.2654C11.4991 11.8999 11.5387 11.4978 11.4616 11.1098C11.3844 10.7219 11.1939 10.3655 10.9142 10.0858C10.6345 9.80608 10.2781 9.6156 9.89019 9.53843C9.50222 9.46126 9.10009 9.50087 8.73464 9.65224C8.36919 9.80362 8.05683 10.06 7.83707 10.3889C7.6173 10.7178 7.50001 11.1044 7.50001 11.5C7.50001 12.0304 7.71072 12.5391 8.08579 12.9142C8.46087 13.2893 8.96957 13.5 9.50001 13.5ZM18.5 9.5C18.1044 9.5 17.7178 9.6173 17.3889 9.83706C17.06 10.0568 16.8036 10.3692 16.6522 10.7346C16.5009 11.1001 16.4613 11.5022 16.5384 11.8902C16.6156 12.2781 16.8061 12.6345 17.0858 12.9142C17.3655 13.1939 17.7219 13.3844 18.1098 13.4616C18.4978 13.5387 18.8999 13.4991 19.2654 13.3478C19.6308 13.1964 19.9432 12.94 20.1629 12.6111C20.3827 12.2822 20.5 11.8956 20.5 11.5C20.5 10.9696 20.2893 10.4609 19.9142 10.0858C19.5391 9.71071 19.0304 9.5 18.5 9.5Z" fill="#00B740"/>
</svg>
