<svg width="260" height="39" viewBox="0 0 260 39" fill="none" xmlns="http://www.w3.org/2000/svg">
    <path d="M56.3857 30.3547V9.42574H69.027V12.1991H71.8971V16.5848H67.7693V13.8437H60.4812V17.7135H66.1892V22.067H60.4812V30.3547H56.3857ZM72.6042 30.3547V17.7135H75.4421V14.9402H85.2455V17.7135H88.1156V22.067H83.9878V19.3259H76.6998V30.3547H72.6042ZM93.8965 30.3547V27.6136H91.0587V17.7135H93.8965V14.9402H103.7V17.7135H106.57V25.969H109.44V30.3547H105.312V27.6136H103.7V30.3547H93.8965ZM95.1542 25.969H102.442V19.3259H95.1542V25.969ZM112.41 30.3547V14.9402H122.214V17.7135H123.794V14.9402H130.792V17.7135H133.597V30.3547H129.534V19.3259H125.052V30.3547H120.956V19.3259H116.506V30.3547H112.41ZM140.064 30.3547V27.6136H137.226V17.7135H140.064V14.9402H149.868V17.7135H152.738V22.067H148.61V19.3259H141.322V20.4223H147.03V24.8403H141.322V25.969H148.61V23.1634H152.738V27.5814H149.868V30.3547H140.064ZM163.113 30.3547V12.1991H165.951V9.42574H175.754V12.1991H178.624V22.067H175.754V24.8403H174.368V25.969H177.173V30.3547H173.11V27.6136H170.208V24.8403H167.208V30.3547H163.113ZM167.208 20.4223H174.497V13.8437H167.208V20.4223ZM185.382 30.3547V27.6136H182.544V17.7135H185.382V14.9402H195.185V17.7135H198.055V25.969H200.925V30.3547H196.797V27.6136H195.185V30.3547H185.382ZM186.639 25.969H193.927V19.3259H186.639V25.969ZM206.989 30.3547V27.6136H204.151V19.3259H201.313V14.9402H204.151V9.42574H208.246V14.9402H216.824V19.3259H208.246V25.969H215.567V23.1957H219.694V27.6136H216.824V30.3547H206.989ZM225.503 30.3547V27.6136H222.665V17.7135H225.503V14.9402H235.306V17.7135H238.176V22.067H234.048V19.3259H226.76V20.4223H232.468V24.8403H226.76V25.969H234.048V23.1634H238.176V27.5814H235.306V30.3547H225.503ZM242.096 30.3547V17.7135H244.933V14.9402H254.737V17.7135H257.607V22.067H253.479V19.3259H246.191V30.3547H242.096Z" fill="#FF4C2C"/>
    <path fill-rule="evenodd" clip-rule="evenodd" d="M38.2946 8.06201H4.03101V12.093H0V28.2171H4.03101V32.2481H38.2946V28.2171H42.3256V12.093H38.2946V8.06201Z" fill="#FF4C2C"/>
    <path d="M18.1395 26.2015V14.1085L28.217 20.6201L18.1395 26.2015Z" fill="white" stroke="white" stroke-width="2.0155"/>
</svg>
