<svg width="100" height="100" viewBox="0 0 100 100" fill="none" xmlns="http://www.w3.org/2000/svg">
    <path d="M50 7.8125C41.6561 7.8125 33.4996 10.2868 26.5619 14.9224C19.6242 19.558 14.2169 26.1468 11.0239 33.8555C7.83078 41.5643 6.99533 50.0468 8.62314 58.2304C10.251 66.4139 14.2689 73.931 20.169 79.8311C26.069 85.7311 33.5861 89.7491 41.7696 91.3769C49.9532 93.0047 58.4357 92.1692 66.1445 88.9762C73.8532 85.7831 80.442 80.3758 85.0776 73.4381C89.7133 66.5004 92.1875 58.3439 92.1875 50C92.1751 38.815 87.7264 28.0916 79.8174 20.1826C71.9084 12.2736 61.185 7.82491 50 7.8125ZM50 82.8125C43.5103 82.8125 37.1664 80.8881 31.7704 77.2826C26.3744 73.6771 22.1687 68.5525 19.6852 62.5568C17.2017 56.5611 16.5519 49.9636 17.818 43.5986C19.0841 37.2336 22.2092 31.387 26.7981 26.7981C31.387 22.2091 37.2336 19.0841 43.5986 17.818C49.9636 16.5519 56.5611 17.2017 62.5568 19.6852C68.5525 22.1687 73.6771 26.3744 77.2826 31.7704C80.8881 37.1663 82.8125 43.5103 82.8125 50C82.8032 58.6996 79.3432 67.0401 73.1917 73.1917C67.0402 79.3432 58.6996 82.8032 50 82.8125ZM29.6875 42.1875C29.6875 40.9514 30.0541 39.743 30.7408 38.7152C31.4276 37.6874 32.4037 36.8863 33.5457 36.4133C34.6878 35.9402 35.9445 35.8164 37.1568 36.0576C38.3692 36.2987 39.4829 36.894 40.3569 37.7681C41.231 38.6422 41.8263 39.7558 42.0674 40.9682C42.3086 42.1806 42.1848 43.4372 41.7118 44.5793C41.2387 45.7213 40.4376 46.6974 39.4098 47.3842C38.382 48.0709 37.1737 48.4375 35.9375 48.4375C34.2799 48.4375 32.6902 47.779 31.5181 46.6069C30.346 45.4348 29.6875 43.8451 29.6875 42.1875ZM70.3125 42.1875C70.3125 43.4236 69.946 44.632 69.2592 45.6598C68.5724 46.6876 67.5963 47.4887 66.4543 47.9617C65.3123 48.4348 64.0556 48.5586 62.8432 48.3174C61.6308 48.0763 60.5172 47.481 59.6431 46.6069C58.769 45.7328 58.1738 44.6192 57.9326 43.4068C57.6915 42.1944 57.8152 40.9378 58.2883 39.7957C58.7613 38.6537 59.5624 37.6776 60.5902 36.9908C61.618 36.3041 62.8264 35.9375 64.0625 35.9375C65.7201 35.9375 67.3098 36.596 68.4819 37.7681C69.654 38.9402 70.3125 40.5299 70.3125 42.1875ZM69.0391 64.4531C69.7199 65.4638 69.9804 66.6998 69.7654 67.8993C69.5503 69.0988 68.8766 70.1673 67.8871 70.8785C66.8975 71.5897 65.6699 71.8876 64.4645 71.709C63.2591 71.5304 62.1706 70.8894 61.4297 69.9219C60.128 68.1057 58.4122 66.6259 56.4245 65.6051C54.4368 64.5843 52.2345 64.0518 50 64.0518C47.7655 64.0518 45.5632 64.5843 43.5755 65.6051C41.5879 66.6259 39.8721 68.1057 38.5703 69.9219C37.8295 70.8894 36.741 71.5304 35.5355 71.709C34.3301 71.8876 33.1025 71.5897 32.113 70.8785C31.1234 70.1673 30.4497 69.0988 30.2347 67.8993C30.0196 66.6998 30.2801 65.4638 30.961 64.4531C33.1311 61.4303 35.9898 58.9677 39.3005 57.269C42.6113 55.5702 46.2789 54.6842 50 54.6842C53.7211 54.6842 57.3888 55.5702 60.6995 57.269C64.0103 58.9677 66.8689 61.4303 69.0391 64.4531Z" fill="#D00034"/>
</svg>
