<svg width="32" height="32" viewBox="0 0 32 32" fill="none" xmlns="http://www.w3.org/2000/svg">
    <path d="M29.0613 14.0612L23.0613 20.0612C22.7795 20.343 22.3973 20.5013 21.9988 20.5013C21.6002 20.5013 21.218 20.343 20.9363 20.0612C20.6545 19.7794 20.4961 19.3972 20.4961 18.9987C20.4961 18.6002 20.6545 18.218 20.9363 17.9362L24.375 14.5H20.625C18.2966 14.4992 16.034 15.2724 14.193 16.6979C12.352 18.1235 11.0371 20.1205 10.455 22.375C10.4058 22.5657 10.3194 22.7449 10.2009 22.9023C10.0824 23.0597 9.93411 23.1922 9.76441 23.2922C9.59471 23.3923 9.40696 23.4579 9.21189 23.4854C9.01682 23.5129 8.81824 23.5017 8.6275 23.4525C8.43675 23.4032 8.25758 23.3169 8.1002 23.1984C7.94282 23.0799 7.81032 22.9316 7.71026 22.7619C7.61021 22.5922 7.54456 22.4044 7.51706 22.2094C7.48956 22.0143 7.50075 21.8157 7.55 21.625C8.29721 18.7259 9.98743 16.1576 12.3545 14.3246C14.7216 12.4916 17.6311 11.4979 20.625 11.5H24.375L20.9387 8.05998C20.657 7.77818 20.4986 7.39599 20.4986 6.99747C20.4986 6.59896 20.657 6.21677 20.9387 5.93497C21.2205 5.65318 21.6027 5.49487 22.0012 5.49487C22.3998 5.49487 22.782 5.65318 23.0637 5.93497L29.0637 11.935C29.2036 12.0745 29.3145 12.2403 29.3901 12.4228C29.4657 12.6054 29.5045 12.801 29.5043 12.9986C29.5041 13.1962 29.4648 13.3918 29.3888 13.5741C29.3127 13.7565 29.2014 13.922 29.0613 14.0612ZM24 25.5H5.5V11C5.5 10.6021 5.34196 10.2206 5.06066 9.93931C4.77936 9.65801 4.39782 9.49997 4 9.49997C3.60218 9.49997 3.22064 9.65801 2.93934 9.93931C2.65804 10.2206 2.5 10.6021 2.5 11V27C2.5 27.3978 2.65804 27.7793 2.93934 28.0606C3.22064 28.3419 3.60218 28.5 4 28.5H24C24.3978 28.5 24.7794 28.3419 25.0607 28.0606C25.342 27.7793 25.5 27.3978 25.5 27C25.5 26.6021 25.342 26.2206 25.0607 25.9393C24.7794 25.658 24.3978 25.5 24 25.5Z" fill="white"/>
</svg>
